PathFileType	4	(X/Y/Z)	C:/Users/opensim2020/Desktop/walking_exp_matlab/subject06_walking12_straigt_01.trc																																																																																																																																														
DataRate	CameraRate	NumFrames	NumMarkers	Units	OrigDataRate	OrigDataStartFrame	OrigNumFrames																																																																																																																																										
100	100	8	48	mm	100	795	196																																																																																																																																										
Frame#	Time	LFHD			RFHD			LBHD			RBHD			C7			T10			CLAV			STRN			RBAK			LSHO			LUPA			LELB			LFRM			LWRA			LWRB			LFIN			RSHO			RUPA			RELB			RFRM			RWRA			RWRB			RFIN			LASI			RASI			LPSI			RPSI			LTHI			LKNE			LTIB			LANK			LHEE			LTOE			RTHI			RKNE			RTIB			RANK			RHEE			RTOE			*39			*40			*41			*42			*43			*44			*45			*46			*47		
		X1	Y1	Z1	X2	Y2	Z2	X3	Y3	Z3	X4	Y4	Z4	X5	Y5	Z5	X6	Y6	Z6	X7	Y7	Z7	X8	Y8	Z8	X9	Y9	Z9	X10	Y10	Z10	X11	Y11	Z11	X12	Y12	Z12	X13	Y13	Z13	X14	Y14	Z14	X15	Y15	Z15	X16	Y16	Z16	X17	Y17	Z17	X18	Y18	Z18	X19	Y19	Z19	X20	Y20	Z20	X21	Y21	Z21	X22	Y22	Z22	X23	Y23	Z23	X24	Y24	Z24	X25	Y25	Z25	X26	Y26	Z26	X27	Y27	Z27	X28	Y28	Z28	X29	Y29	Z29	X30	Y30	Z30	X31	Y31	Z31	X32	Y32	Z32	X33	Y33	Z33	X34	Y34	Z34	X35	Y35	Z35	X36	Y36	Z36	X37	Y37	Z37	X38	Y38	Z38	X39	Y39	Z39	X40	Y40	Z40	X41	Y41	Z41	X42	Y42	Z42	X43	Y43	Z43	X44	Y44	Z44	X45	Y45	Z45	X46	Y46	Z46	X47	Y47	Z47	X48	Y48	Z48
																																																																																																																																																	
1	0	-844.70697	1642.68726	-1101.17468	-854.09125	1631.92627	-970.68304	-987.44592	1618.87976	-1109.10815	-993.18951	1613.69336	-979.61517	-1023.63458	1456.60596	-1051.93054	-1090.43628	1129.92871	-1031.54736	-922.36273	1367.04407	-1045.0625	-898.09851	1190.4325	-1046.26111	-1115.67517	1295.10425	-968.97052	-967.62952	1401.44324	-1208.87524	-969.25769	1200.60229	-1283.21948	-970.69397	1088.8042	-1300.87598	-922.75598	946.6297	-1322.75623	-847.72382	844.10242	-1273.13953	-901.16382	829.19995	-1319.11902	-843.8476	759.06775	-1315.78442	-969.42664	1409.92432	-886.50281	-1030.87488	1219.29895	-795.73138	-1035.71851	1097.39893	-781.07727	-1042.70178	978.00482	-758.54492	-1013.26331	827.59607	-780.23761	-1066.11267	842.03821	-741.78888	-1046.06836	759.96167	-735.60535	-919.48529	962.31946	-1139.30078	-921.89093	965.35278	-917.85413	-1076.63147	995.98224	-1109.5863	-1071.77124	989.48926	-941.98328	-995.0163	655.75458	-1202.86353	-1005.12433	491.14828	-1186.19629	-1046.84509	236.14815	-1178.38489	-1048.67224	63.32136	-1132.84534	-1086.92993	49.34419	-1084.84985	-904.26251	35.01617	-1138.1908	-895.20587	641.6507	-860.07959	-842.29675	527.43488	-881.89899	-976.84229	308.29471	-891.40741	-1081.9469	156.04579	-937.30652	-1126.73999	150.3306	-984.66229	-963.71991	56.66547	-930.80859	-937.34943	1702.52661	-1047.17529	NaN	NaN	NaN	NaN	NaN	NaN	NaN	NaN	NaN	NaN	NaN	NaN	NaN	NaN	NaN	NaN	NaN	NaN	NaN	NaN	NaN	NaN	NaN	NaN
2	0.01	-836.2724	1642.86108	-1101.03198	-846.27277	1631.99048	-970.95337	-979.22681	1619.19885	-1109.85742	-985.30536	1613.70032	-980.35681	-1015.55042	1456.72498	-1053.26575	-1082.20984	1130.1123	-1033.36072	-914.28491	1367.28345	-1046.07349	-889.89252	1190.63196	-1047.51208	-1107.80432	1295.06116	-971.03448	-959.09845	1401.99329	-1210.73291	-958.06982	1201.71631	-1285.08228	-957.66162	1089.77283	-1302.74817	-905.92609	948.80438	-1323.7749	-828.79504	848.40814	-1273.12207	-881.31958	831.92706	-1319.495	-822.12091	763.40186	-1315.40466	-962.15607	1409.92139	-887.6225	-1024.41455	1219.36926	-797.35168	-1029.68628	1097.5376	-782.63702	-1036.91016	978.1687	-760.24933	-1007.27582	827.78613	-781.54401	-1060.68713	842.20959	-743.58722	-1040.68677	759.99792	-737.38916	-911.36481	962.28741	-1140.39697	-913.35413	965.83832	-919.38544	-1068.56506	995.97064	-1110.87354	-1063.42261	989.8241	-943.4295	-989.05579	655.49414	-1203.54712	-999.99634	490.87152	-1186.49316	-1044.91809	236.17149	-1178.63428	-1048.41492	63.39984	-1132.72339	-1086.6593	49.67029	-1084.88977	-903.93665	34.66569	-1138.15125	-884.78485	643.3349	-860.94452	-830.79254	529.7998	-883.1499	-957.05121	304.81308	-892.97461	-1054.05994	147.38683	-939.44836	-1098.07593	139.11171	-987.2691	-930.82184	54.80727	-930.87524	-929.33649	1702.6438	-1047.61694	NaN	NaN	NaN	NaN	NaN	NaN	NaN	NaN	NaN	NaN	NaN	NaN	NaN	NaN	NaN	NaN	NaN	NaN	NaN	NaN	NaN	NaN	NaN	NaN
3	0.02	-828.01752	1643.15356	-1101.16919	-838.34644	1632.0437	-971.2533	-971.01971	1619.37683	-1110.46143	-977.41498	1613.56201	-980.99176	-1007.26013	1456.66931	-1054.44727	-1073.99792	1130.15491	-1035.05542	-906.08203	1367.39819	-1047.0116	-881.66486	1190.70447	-1048.61865	-1099.9502	1294.86682	-972.99207	-949.77673	1402.70203	-1210.94214	-946.60974	1202.41736	-1286.43274	-944.69031	1090.58484	-1304.44934	-889.3858	950.98071	-1324.79407	-810.10718	852.82489	-1272.97742	-861.6759	834.82135	-1319.77356	-800.64307	767.99237	-1314.97339	-954.69958	1409.80139	-888.69489	-1018.05542	1219.35669	-798.83179	-1023.52423	1097.52112	-784.19183	-1031.09009	978.13104	-761.80994	-1001.88318	827.47632	-783.56018	-1055.13867	842.17889	-745.35547	-1035.39185	759.99487	-739.00049	-902.22614	962.40143	-1141.60498	-905.29639	965.97736	-920.77399	-1060.44519	995.91699	-1112.07642	-1055.38477	990.29602	-944.46838	-982.75641	655.0658	-1203.96924	-994.96777	490.57373	-1186.71973	-1042.58752	236.32948	-1178.31372	-1048.16138	63.4721	-1132.66931	-1085.68921	49.19807	-1085.43445	-903.73962	34.465	-1138.19641	-874.25824	644.87073	-861.10803	-819.72461	531.84058	-884.01727	-937.29034	301.37183	-894.52429	-1025.50647	138.74213	-941.32275	-1068.62744	128.09283	-989.6579	-897.68945	53.32409	-930.64697	-921.37372	1702.82104	-1047.99023	NaN	NaN	NaN	NaN	NaN	NaN	NaN	NaN	NaN	NaN	NaN	NaN	NaN	NaN	NaN	NaN	NaN	NaN	NaN	NaN	NaN	NaN	NaN	NaN
4	0.03	-819.95123	1643.45825	-1101.36072	-830.24072	1631.95813	-972.03107	-962.63263	1619.39612	-1110.75012	-969.37378	1613.35608	-981.58136	-998.95221	1456.67651	-1055.57239	-1065.7168	1130.11304	-1036.6217	-897.81299	1367.39355	-1047.74463	-873.28467	1190.70825	-1049.70801	-1091.82825	1294.6925	-974.86096	-940.69525	1403.08887	-1211.80774	-935.40344	1203.20886	-1288.02429	-931.81281	1091.37451	-1306.3031	-872.92194	953.10919	-1325.70142	-791.7915	857.31189	-1272.75	-842.29968	837.82452	-1320.0592	-779.45282	772.63885	-1314.33044	-947.12177	1409.51868	-889.65845	-1011.33679	1219.17981	-800.41211	-1017.17621	1097.32129	-785.6795	-1025.04358	977.96332	-763.3938	-995.91357	827.27362	-784.72357	-1049.45374	841.98596	-747.12433	-1029.69507	759.83563	-740.4599	-894.21252	961.80975	-1143.04846	-896.51282	965.66345	-922.33478	-1052.32947	995.74213	-1113.18494	-1047.08276	990.61346	-945.54895	-976.54382	654.638	-1204.30725	-989.90454	490.22256	-1186.99939	-1040.37329	236.41946	-1178.6759	-1047.93445	63.59079	-1132.54688	-1085.92896	49.65644	-1085.22791	-903.56738	34.24619	-1138.26599	-864.28241	646.32837	-861.48907	-809.31201	533.54883	-884.875	-917.89673	298.03976	-895.92462	-996.49402	130.3772	-942.89935	-1038.49988	117.33198	-991.70648	-864.36041	52.20053	-930.32849	-913.50427	1702.82178	-1048.27185	NaN	NaN	NaN	NaN	NaN	NaN	NaN	NaN	NaN	NaN	NaN	NaN	NaN	NaN	NaN	NaN	NaN	NaN	NaN	NaN	NaN	NaN	NaN	NaN
5	0.04	-812.01715	1643.76904	-1101.78882	-822.44537	1632.0166	-971.6524	-954.46387	1619.28198	-1111.17737	-961.41144	1612.98108	-982.01501	-990.56866	1456.6449	-1056.61951	-1057.31311	1130.02307	-1038.1582	-889.31097	1367.37036	-1048.71973	-865.03644	1190.51465	-1050.74146	-1083.76245	1294.39844	-976.59338	-931.48773	1403.30933	-1212.64197	-924.28949	1204.01111	-1289.77136	-918.92834	1092.07715	-1308.24475	-856.61108	955.24823	-1326.55237	-773.65216	861.80707	-1272.47253	-823.03638	840.75183	-1320.00232	-758.57214	777.41815	-1313.51599	-939.42987	1409.09082	-890.56189	-1004.52716	1218.81152	-801.76227	-1010.67822	1097.00098	-787.1579	-1018.91235	977.67371	-764.88513	-989.40649	827.22321	-785.16626	-1043.71216	841.76062	-748.86755	-1024.44727	759.59601	-741.92529	-886.1438	961.16309	-1144.45728	-888.20831	966.4325	-923.31659	-1044.125	995.45361	-1114.23047	-1038.64331	990.82819	-946.60022	-970.22186	654.07019	-1204.59814	-985.16913	489.78888	-1187.08325	-1038.28296	236.47475	-1178.87964	-1047.63013	63.68733	-1132.42004	-1085.53943	49.76373	-1085.35559	-903.33691	33.98084	-1138.35681	-854.64441	647.57642	-861.54291	-799.20612	534.88745	-885.52838	-898.47705	294.40674	-897.13391	-967.08716	122.34094	-944.31226	-1007.88684	107.13891	-993.45746	-831.12683	51.50584	-929.86914	-905.60773	1702.64172	-1048.48779	NaN	NaN	NaN	NaN	NaN	NaN	NaN	NaN	NaN	NaN	NaN	NaN	NaN	NaN	NaN	NaN	NaN	NaN	NaN	NaN	NaN	NaN	NaN	NaN
6	0.05	-804.16705	1644.06653	-1102.31079	-814.43561	1631.90894	-971.76251	-946.26465	1619.08191	-1111.55298	-953.37488	1612.47278	-982.38159	-982.0415	1456.31934	-1057.53308	-1048.83862	1129.83667	-1039.62292	-880.9801	1367.03711	-1049.26819	-856.49561	1190.28223	-1051.79004	-1075.55066	1294.05554	-978.22406	-922.27832	1403.55383	-1213.58093	-912.97382	1204.45508	-1291.04712	-906.19214	1092.74829	-1310.00525	-840.47742	957.37622	-1327.29224	-756.27496	866.1817	-1272.03125	-804.15509	843.7688	-1319.98633	-737.99017	782.28723	-1312.69678	-931.6272	1408.60901	-891.38098	-997.47345	1218.33643	-803.297	-1003.96515	1096.55823	-788.59637	-1012.65411	977.23419	-766.30957	-983.56311	826.51959	-786.9436	-1037.98682	841.41394	-750.52863	-1018.68622	759.21826	-743.29675	-877.88037	960.50513	-1145.66211	-879.41644	966.27942	-924.41235	-1035.76184	995.02356	-1115.22009	-1030.19702	990.99768	-947.52551	-963.93719	653.44556	-1204.89014	-980.34106	489.4007	-1187.13965	-1036.0354	236.41719	-1178.77527	-1047.17542	63.80285	-1132.29468	-1085.28674	50.07273	-1085.29688	-903.03839	33.78255	-1138.4967	-845.03015	648.25879	-861.89484	-789.42755	535.89636	-886.27863	-878.82587	290.58685	-898.10883	-937.29675	114.82	-945.37714	-976.71826	97.50168	-994.76703	-797.81049	50.97165	-929.6123	-897.70563	1702.4209	-1048.60596	NaN	NaN	NaN	NaN	NaN	NaN	NaN	NaN	NaN	NaN	NaN	NaN	NaN	NaN	NaN	NaN	NaN	NaN	NaN	NaN	NaN	NaN	NaN	NaN
7	0.06	-795.67712	1643.9043	-1101.87048	-806.41748	1631.63782	-971.78387	-938.03693	1618.74927	-1111.82837	-945.18427	1611.88159	-982.68915	-973.42633	1456.01782	-1058.42554	-1040.26074	1129.55664	-1040.94128	-872.39941	1366.68054	-1049.83899	-847.97009	1189.91028	-1052.62817	-1067.21838	1293.62622	-979.78351	-912.6745	1403.80396	-1213.59363	-901.85175	1205.07776	-1292.61829	-893.39404	1093.37317	-1311.86462	-824.64056	959.55566	-1328.16052	-738.67542	870.69678	-1271.57507	-785.62634	846.79181	-1319.88794	-717.77423	787.20441	-1311.70117	-923.72052	1407.93921	-892.14752	-990.33191	1217.71326	-804.57013	-997.15387	1096.01367	-789.94897	-1006.26642	976.69434	-767.66852	-977.1911	825.95081	-787.93256	-1031.95483	841.1853	-751.83032	-1013.12885	758.86176	-744.59717	-869.48468	959.70441	-1146.81299	-870.22687	966.17462	-925.89069	-1027.31335	994.49585	-1116.1344	-1021.10681	990.84161	-948.43414	-957.75897	652.84418	-1205.24744	-975.52216	488.94232	-1187.27637	-1033.47925	236.50232	-1178.90283	-1046.78394	63.99985	-1132.10181	-1085.00867	50.44474	-1085.1377	-902.57739	33.72498	-1138.63916	-835.91449	648.8233	-861.74677	-780.1991	536.36816	-886.70416	-858.87946	286.64362	-898.93689	-907.20178	107.9444	-946.14154	-945.59186	89.18243	-995.75159	-764.83209	50.4291	-929.56787	-889.80853	1702.08606	-1048.68799	NaN	NaN	NaN	NaN	NaN	NaN	NaN	NaN	NaN	NaN	NaN	NaN	NaN	NaN	NaN	NaN	NaN	NaN	NaN	NaN	NaN	NaN	NaN	NaN
8	0.07	-787.42938	1643.76819	-1101.68823	-798.24847	1631.31714	-971.80188	-929.73584	1618.22205	-1112.02808	-937.02722	1611.09094	-982.86713	-964.74567	1455.60461	-1059.23633	-1031.53125	1129.13281	-1042.18677	-863.73596	1366.21692	-1050.4187	-839.3269	1189.38293	-1053.5896	-1058.78198	1293.09827	-981.22565	-903.76288	1403.32202	-1214.73706	-890.51349	1205.36755	-1293.72583	-880.77246	1093.98254	-1313.47766	-808.83405	961.62042	-1328.79419	-721.4245	875.21265	-1271.04431	-767.29089	849.86328	-1319.68506	-698.0686	792.1272	-1310.65955	-915.64758	1407.20264	-892.8291	-983.20752	1217.12427	-805.70117	-990.15247	1095.37244	-791.27832	-999.67609	976.0813	-768.99786	-970.74823	825.20343	-788.98706	-1025.81384	840.29541	-753.66772	-1006.76221	758.13733	-745.90607	-861.16803	958.84344	-1147.83655	-861.35315	966.25848	-927.00751	-1018.77234	993.88544	-1117.00159	-1012.21808	990.62408	-949.28217	-951.35559	652.10413	-1205.34143	-970.68958	488.39072	-1187.20813	-1031.10291	236.46452	-1178.75134	-1046.31018	64.20234	-1131.78162	-1085.12598	51.09941	-1084.59546	-902.31201	33.61773	-1138.75574	-827.08807	648.64716	-862.02765	-771.19885	536.37775	-887.14044	-838.78387	282.71088	-899.4071	-876.69696	101.39886	-946.69946	-913.53156	80.74108	-996.9306	-731.91742	49.73108	-929.90448	-881.88177	1701.59595	-1048.65759	NaN	NaN	NaN	NaN	NaN	NaN	NaN	NaN	NaN	NaN	NaN	NaN	NaN	NaN	NaN	NaN	NaN	NaN	NaN	NaN	NaN	NaN	NaN	NaN
